<svg style="display:none" xmlns="http://www.w3.org/2000/svg" xmlns:xlink="http://www.w3.org/1999/xlink" version="1.1">
	<symbol id="account_circle" xmlns="http://www.w3.org/2000/svg" viewBox="0 -960 960 960" fill="currentColor"><path d="M234-276q51-39 114-61.5T480-360q69 0 132 22.5T726-276q35-41 54.5-93T800-480q0-133-93.5-226.5T480-800q-133 0-226.5 93.5T160-480q0 59 19.5 111t54.5 93Zm246-164q-59 0-99.5-40.5T340-580q0-59 40.5-99.5T480-720q59 0 99.5 40.5T620-580q0 59-40.5 99.5T480-440Zm0 360q-83 0-156-31.5T197-197q-54-54-85.5-127T80-480q0-83 31.5-156T197-763q54-54 127-85.5T480-880q83 0 156 31.5T763-763q54 54 85.5 127T880-480q0 83-31.5 156T763-197q-54 54-127 85.5T480-80Zm0-80q53 0 100-15.5t86-44.5q-39-29-86-44.5T480-280q-53 0-100 15.5T294-220q39 29 86 44.5T480-160Zm0-360q26 0 43-17t17-43q0-26-17-43t-43-17q-26 0-43 17t-17 43q0 26 17 43t43 17Zm0-60Zm0 360Z"/></symbol>
	<symbol id="close" xmlns="http://www.w3.org/2000/svg" viewBox="0 -960 960 960" fill="currentColor"><path d="m256-200-56-56 224-224-224-224 56-56 224 224 224-224 56 56-224 224 224 224-56 56-224-224-224 224Z"/></symbol>
	<symbol id="favorite" xmlns="http://www.w3.org/2000/svg" viewBox="0 -960 960 960" fill="currentColor"><path d="m480-120-58-52q-101-91-167-157T150-447.5Q111-500 95.5-544T80-634q0-94 63-157t157-63q52 0 99 22t81 62q34-40 81-62t99-22q94 0 157 63t63 157q0 46-15.5 90T810-447.5Q771-395 705-329T538-172l-58 52Zm0-108q96-86 158-147.5t98-107q36-45.5 50-81t14-70.5q0-60-40-100t-100-40q-47 0-87 26.5T518-680h-76q-15-41-55-67.5T300-774q-60 0-100 40t-40 100q0 35 14 70.5t50 81q36 45.5 98 107T480-228Zm0-273Z"/></symbol>
	<symbol id="home_pin" xmlns="http://www.w3.org/2000/svg" viewBox="0 -960 960 960" fill="currentColor"><path d="M360-440h80v-110h80v110h80v-190l-120-80-120 80v190Zm120 254q122-112 181-203.5T720-552q0-109-69.5-178.5T480-800q-101 0-170.5 69.5T240-552q0 71 59 162.5T480-186Zm0 106Q319-217 239.5-334.5T160-552q0-150 96.5-239T480-880q127 0 223.5 89T800-552q0 100-79.5 217.5T480-80Zm0-480Z"/></symbol>
	<symbol id="call" xmlns="http://www.w3.org/2000/svg" viewBox="0 -960 960 960" fill="currentColor"><path d="M798-120q-125 0-247-54.5T329-329Q229-429 174.5-551T120-798q0-18 12-30t30-12h162q14 0 25 9.5t13 22.5l26 140q2 16-1 27t-11 19l-97 98q20 37 47.5 71.5T387-386q31 31 65 57.5t72 48.5l94-94q9-9 23.5-13.5T670-390l138 28q14 4 23 14.5t9 23.5v162q0 18-12 30t-30 12ZM241-600l66-66-17-94h-89q5 41 14 81t26 79Zm358 358q39 17 79.5 27t81.5 13v-88l-94-19-67 67ZM241-600Zm358 358Z"/></symbol>
	<symbol id="local_shipping" xmlns="http://www.w3.org/2000/svg" viewBox="0 -960 960 960" fill="currentColor"><path d="M240-160q-50 0-85-35t-35-85H40v-440q0-33 23.5-56.5T120-800h560v160h120l120 160v200h-80q0 50-35 85t-85 35q-50 0-85-35t-35-85H360q0 50-35 85t-85 35Zm0-80q17 0 28.5-11.5T280-280q0-17-11.5-28.5T240-320q-17 0-28.5 11.5T200-280q0 17 11.5 28.5T240-240ZM120-360h32q17-18 39-29t49-11q27 0 49 11t39 29h272v-360H120v360Zm600 120q17 0 28.5-11.5T760-280q0-17-11.5-28.5T720-320q-17 0-28.5 11.5T680-280q0 17 11.5 28.5T720-240Zm-40-200h170l-90-120h-80v120ZM360-540Z"/></symbol>
	<symbol id="pan_zoom" xmlns="http://www.w3.org/2000/svg" viewBox="0 -960 960 960" fill="currentColor"><path d="M120-120v-240h80v104l124-124 56 56-124 124h104v80H120Zm516-460-56-56 124-124H600v-80h240v240h-80v-104L636-580Z"/></symbol>
	<symbol id="share" xmlns="http://www.w3.org/2000/svg" viewBox="0 -960 960 960" fill="currentColor"><path d="M720-80q-50 0-85-35t-35-85q0-7 1-14.5t3-13.5L322-392q-17 15-38 23.5t-44 8.5q-50 0-85-35t-35-85q0-50 35-85t85-35q23 0 44 8.5t38 23.5l282-164q-2-6-3-13.5t-1-14.5q0-50 35-85t85-35q50 0 85 35t35 85q0 50-35 85t-85 35q-23 0-44-8.5T638-672L356-508q2 6 3 13.5t1 14.5q0 7-1 14.5t-3 13.5l282 164q17-15 38-23.5t44-8.5q50 0 85 35t35 85q0 50-35 85t-85 35Zm0-640q17 0 28.5-11.5T760-760q0-17-11.5-28.5T720-800q-17 0-28.5 11.5T680-760q0 17 11.5 28.5T720-720ZM240-440q17 0 28.5-11.5T280-480q0-17-11.5-28.5T240-520q-17 0-28.5 11.5T200-480q0 17 11.5 28.5T240-440Zm480 280q17 0 28.5-11.5T760-200q0-17-11.5-28.5T720-240q-17 0-28.5 11.5T680-200q0 17 11.5 28.5T720-160Zm0-600ZM240-480Zm480 280Z"/></symbol>
	<symbol id="sell" xmlns="http://www.w3.org/2000/svg" viewBox="0 -960 960 960" fill="currentColor"><path d="M856-390 570-104q-12 12-27 18t-30 6q-15 0-30-6t-27-18L103-457q-11-11-17-25.5T80-513v-287q0-33 23.5-56.5T160-880h287q16 0 31 6.5t26 17.5l352 353q12 12 17.5 27t5.5 30q0 15-5.5 29.5T856-390ZM513-160l286-286-353-354H160v286l353 354ZM260-640q25 0 42.5-17.5T320-700q0-25-17.5-42.5T260-760q-25 0-42.5 17.5T200-700q0 25 17.5 42.5T260-640Zm220 160Z"/></symbol>
	<symbol id="check-circle" xmlns="http://www.w3.org/2000/svg" viewBox="0 -960 960 960" fill="currentColor"><path d="m424-296 282-282-56-56-226 226-114-114-56 56 170 170Zm56 216q-83 0-156-31.5T197-197q-54-54-85.5-127T80-480q0-83 31.5-156T197-763q54-54 127-85.5T480-880q83 0 156 31.5T763-763q54 54 85.5 127T880-480q0 83-31.5 156T763-197q-54 54-127 85.5T480-80Zm0-80q134 0 227-93t93-227q0-134-93-227t-227-93q-134 0-227 93t-93 227q0 134 93 227t227 93Zm0-320Z"/></symbol>
	<symbol id="error" xmlns="http://www.w3.org/2000/svg" viewBox="0 -960 960 960" fill="currentColor"><path d="M480-280q17 0 28.5-11.5T520-320q0-17-11.5-28.5T480-360q-17 0-28.5 11.5T440-320q0 17 11.5 28.5T480-280Zm-40-160h80v-240h-80v240Zm40 360q-83 0-156-31.5T197-197q-54-54-85.5-127T80-480q0-83 31.5-156T197-763q54-54 127-85.5T480-880q83 0 156 31.5T763-763q54 54 85.5 127T880-480q0 83-31.5 156T763-197q-54 54-127 85.5T480-80Zm0-80q134 0 227-93t93-227q0-134-93-227t-227-93q-134 0-227 93t-93 227q0 134 93 227t227 93Zm0-320Z"/></symbol>
	<symbol id="trash" xmlns="http://www.w3.org/2000/svg" viewBox="0 -960 960 960" fill="currentColor"><path d="M280-120q-33 0-56.5-23.5T200-200v-520h-40v-80h200v-40h240v40h200v80h-40v520q0 33-23.5 56.5T680-120H280Zm400-600H280v520h400v-520ZM360-280h80v-360h-80v360Zm160 0h80v-360h-80v360ZM280-720v520-520Z"/></symbol>

	<symbol id="chevron-right" viewBox="0 0 256 256"><path fill="currentColor" d="m181.66 133.66l-80 80a8 8 0 0 1-11.32-11.32L164.69 128L90.34 53.66a8 8 0 0 1 11.32-11.32l80 80a8 8 0 0 1 0 11.32"></path></symbol>
	<symbol id="verified-seal" xmlns="http://www.w3.org/2000/svg" viewBox="4.36 4.36 19.28 19.28"><g data-name="Grupo 147234"><path fill="#008aeb" d="M15.573 5.1a2.043 2.043 0 0 1 3.607 1.5 2.043 2.043 0 0 0 2.22 2.22 2.043 2.043 0 0 1 1.5 3.607 2.043 2.043 0 0 0 0 3.146 2.043 2.043 0 0 1-1.5 3.607 2.043 2.043 0 0 0-2.22 2.22 2.043 2.043 0 0 1-3.607 1.5 2.043 2.043 0 0 0-3.146 0 2.043 2.043 0 0 1-3.607-1.5 2.043 2.043 0 0 0-2.22-2.22 2.043 2.043 0 0 1-1.5-3.607 2.043 2.043 0 0 0 0-3.146A2.043 2.043 0 0 1 6.6 8.82 2.043 2.043 0 0 0 8.82 6.6a2.043 2.043 0 0 1 3.607-1.5 2.043 2.043 0 0 0 3.146 0" data-name="Pol\xEDgono 1"></path><path fill="#fff" d="m12.53 17.892-3.673-3.673 1.175-1.176 2.5 2.5 5.434-5.438 1.175 1.175Z"></path></g></symbol>
	<symbol id="card" focusable="false" preserveAspectRatio="xMidYMid meet" xmlns="http://www.w3.org/2000/svg" fill="currentColor" viewBox="0 0 32 32" aria-hidden="true"><path d="M28,6H4A2,2,0,0,0,2,8V24a2,2,0,0,0,2,2H28a2,2,0,0,0,2-2V8A2,2,0,0,0,28,6Zm0,2v3H4V8ZM4,24V13H28V24Z"></path><path d="M6 20H16V22H6z"></path></symbol>
	<symbol id="pix" xmlns="http://www.w3.org/2000/svg" data-name="Grupo 147133" viewBox="-1.06 -1.06 18.12 18.11"><defs><clipPath id="PixIcon_svg__a"><path fill="#47484c" d="M7.13 9.783a1.166 1.166 0 0 1 1.657 0l2.02 2.034a1.48 1.48 0 0 0 .924.435l.149.006a.394.394 0 0 1 .261.671l-2.248 2.264a2.72 2.72 0 0 1-3.867 0l-2.25-2.264a.394.394 0 0 1 .277-.672h.134a1.5 1.5 0 0 0 .926-.435Zm1.1.556a.39.39 0 0 0-.552 0l-2.015 2.034a2.3 2.3 0 0 1-.665.464l-.146.062 1.726 1.738a1.944 1.944 0 0 0 2.762 0l1.728-1.738-.156-.065a2.3 2.3 0 0 1-.538-.349l-.119-.111ZM4.053 4.528c.309 0 .9.541 2.33 2.054l.49.521a1.554 1.554 0 0 0 2.2.069l2.285-2.3a1.17 1.17 0 0 1 .829-.344h.632a1.17 1.17 0 0 1 .789.308l1.579 1.442a2.53 2.53 0 0 1 .164 3.556q-.039.043-.08.084l-1.336 1.339a1.17 1.17 0 0 1-.829.346h-.919a1.17 1.17 0 0 1-.825-.346l-2.3-2.312a1.556 1.556 0 0 0-2.21 0l-2.294 2.312a1.17 1.17 0 0 1-.829.346h-.63a1.17 1.17 0 0 1-.789-.307L.818 9.931A2.53 2.53 0 0 1 .652 6.37q.079-.087.166-.167l1.493-1.368a1.17 1.17 0 0 1 .789-.307zm8.769.787h-.635a.4.4 0 0 0-.276.115l-2.3 2.31a2.4 2.4 0 0 1-.346.272l-.076.045.069.044a2 2 0 0 1 .24.186l.113.106 2.3 2.312a.4.4 0 0 0 .276.115h.915a.4.4 0 0 0 .276-.115l1.333-1.343.055-.058a1.74 1.74 0 0 0-.109-2.447l-1.57-1.44a.4.4 0 0 0-.263-.1Zm-8.769 0h-.954a.4.4 0 0 0-.263.1l-1.492 1.37q-.06.055-.114.115a1.74 1.74 0 0 0 .114 2.45l1.492 1.367a.4.4 0 0 0 .263.1h.63a.4.4 0 0 0 .276-.115l2.3-2.312a2.4 2.4 0 0 1 .352-.292l.117-.075-.019-.011a2.3 2.3 0 0 1-.343-.268l-.105-.105Q5.165 6.42 4.538 5.814l-.117-.112a7 7 0 0 0-.363-.325l-.048-.041c-.012-.015-.006-.025.046-.025ZM6.026.807a2.72 2.72 0 0 1 3.867 0l2.249 2.264a.394.394 0 0 1-.276.671 1.5 1.5 0 0 0-1.058.441L8.787 6.216a1.166 1.166 0 0 1-1.657 0L5.11 4.182a1.48 1.48 0 0 0-.923-.435l-.149-.006a.394.394 0 0 1-.261-.671Zm3.315.556a1.944 1.944 0 0 0-2.762 0L4.85 3.1l.156.065a2.3 2.3 0 0 1 .538.349l.119.111 2.024 2.032a.39.39 0 0 0 .552 0l2.02-2.034a2.3 2.3 0 0 1 .665-.464l.146-.062Z" clip-rule="evenodd" data-name="Caminho 60562"></path></clipPath></defs><g clip-path="url(#PixIcon_svg__a)" data-name="Grupo 95731"><path fill="#47484c" d="M-1.06-1.056h18.119v18.111H-1.06Z" data-name="Caminho 60561"></path></g></symbol>
	<symbol id="bars" focusable="false" preserveAspectRatio="xMidYMid meet" xmlns="http://www.w3.org/2000/svg" fill="currentColor" viewBox="0 0 32 32" aria-hidden="true"><path d="M2 6H4V28H2zM12 6H14V26H12zM6 6H10V26H6zM16 6H20V26H16zM22 6H26V26H22zM28 6H30V28H28z"></path></symbol>
	<symbol id="search" viewBox="0 0 256 256"><path fill="currentColor" d="m228.24 219.76l-51.38-51.38a86.15 86.15 0 1 0-8.48 8.48l51.38 51.38a6 6 0 0 0 8.48-8.48M38 112a74 74 0 1 1 74 74a74.09 74.09 0 0 1-74-74"></path></symbol>
	<symbol id="location" xmlns="http://www.w3.org/2000/svg" viewBox="0 0 256 256"><path fill="currentColor" d="M128,64a40,40,0,1,0,40,40A40,40,0,0,0,128,64Zm0,64a24,24,0,1,1,24-24A24,24,0,0,1,128,128Zm0-112a88.1,88.1,0,0,0-88,88c0,31.4,14.51,64.68,42,96.25a254.19,254.19,0,0,0,41.45,38.3,8,8,0,0,0,9.18,0A254.19,254.19,0,0,0,174,200.25c27.45-31.57,42-64.85,42-96.25A88.1,88.1,0,0,0,128,16Zm0,206c-16.53-13-72-60.75-72-118a72,72,0,0,1,144,0C200,161.23,144.53,209,128,222Z"></path></symbol>
	<symbol id="cart" xmlns="http://www.w3.org/2000/svg" viewBox="0 0 256 256"><path fill="currentColor" d="M230.14,58.87A8,8,0,0,0,224,56H62.68L56.6,22.57A8,8,0,0,0,48.73,16H24a8,8,0,0,0,0,16h18L67.56,172.29a24,24,0,0,0,5.33,11.27,28,28,0,1,0,44.4,8.44h45.42A27.75,27.75,0,0,0,160,204a28,28,0,1,0,28-28H91.17a8,8,0,0,1-7.87-6.57L80.13,152h116a24,24,0,0,0,23.61-19.71l12.16-66.86A8,8,0,0,0,230.14,58.87ZM104,204a12,12,0,1,1-12-12A12,12,0,0,1,104,204Zm96,0a12,12,0,1,1-12-12A12,12,0,0,1,200,204Zm4-74.57A8,8,0,0,1,196.1,136H77.22L65.59,72H214.41Z"></path></symbol>
	<symbol id="menu" xmlns="http://www.w3.org/2000/svg" viewBox="0 0 256 256"><path fill="currentColor" d="M224,128a8,8,0,0,1-8,8H40a8,8,0,0,1,0-16H216A8,8,0,0,1,224,128ZM40,72H216a8,8,0,0,0,0-16H40a8,8,0,0,0,0,16ZM216,184H40a8,8,0,0,0,0,16H216a8,8,0,0,0,0-16Z"></path></symbol>
	<symbol id="user" xmlns="http://www.w3.org/2000/svg" viewBox="0 0 256 256"><path fill="currentColor" d="M172,120a44,44,0,1,1-44-44A44.05,44.05,0,0,1,172,120Zm60,8A104,104,0,1,1,128,24,104.11,104.11,0,0,1,232,128Zm-16,0a88.09,88.09,0,0,0-91.47-87.93C77.43,41.89,39.87,81.12,40,128.25a87.65,87.65,0,0,0,22.24,58.16A79.71,79.71,0,0,1,84,165.1a4,4,0,0,1,4.83.32,59.83,59.83,0,0,0,78.28,0,4,4,0,0,1,4.83-.32,79.71,79.71,0,0,1,21.79,21.31A87.62,87.62,0,0,0,216,128Z"></path></symbol>

	<symbol id="app-store-badge" xmlns="http://www.w3.org/2000/svg"><path d="M110.135 0H9.535Q8.986 0 8.44.002q-.457.004-.919.013A13 13 0 0 0 5.517.19a6.7 6.7 0 0 0-1.9.627 6.4 6.4 0 0 0-1.62 1.18A6.3 6.3 0 0 0 .82 3.617 6.6 6.6 0 0 0 .195 5.52a13 13 0 0 0-.179 2.002c-.01.307-.01.615-.015.921V31.56c.005.31.006.61.015.921a13 13 0 0 0 .18 2.002 6.6 6.6 0 0 0 .624 1.905A6.2 6.2 0 0 0 1.998 38a6.3 6.3 0 0 0 1.618 1.179 6.7 6.7 0 0 0 1.901.63 13.5 13.5 0 0 0 2.004.177c.31.007.613.011.919.011.366.002.728.002 1.095.002h100.6c.36 0 .724 0 1.084-.002.304 0 .617-.004.922-.01a13 13 0 0 0 2-.178 6.8 6.8 0 0 0 1.908-.63A6.3 6.3 0 0 0 117.666 38a6.4 6.4 0 0 0 1.182-1.614 6.6 6.6 0 0 0 .619-1.905 13.5 13.5 0 0 0 .185-2.002c.004-.31.004-.61.004-.921.008-.364.008-.725.008-1.094V9.536q.002-.549-.008-1.092.001-.46-.004-.92a13.5 13.5 0 0 0-.185-2.003 6.6 6.6 0 0 0-.62-1.903 6.47 6.47 0 0 0-2.798-2.8 6.8 6.8 0 0 0-1.908-.627 13 13 0 0 0-2-.176c-.305-.005-.618-.011-.922-.013-.36-.002-.725-.002-1.084-.002Z" style="fill:#a6a6a6"/><path d="M8.445 39.125c-.305 0-.602-.004-.904-.01a13 13 0 0 1-1.87-.164 5.9 5.9 0 0 1-1.656-.548 5.4 5.4 0 0 1-1.397-1.016 5.3 5.3 0 0 1-1.02-1.397 5.7 5.7 0 0 1-.544-1.657 12.4 12.4 0 0 1-.166-1.875c-.007-.21-.015-.913-.015-.913v-23.1s.009-.692.015-.895a12.4 12.4 0 0 1 .165-1.872 5.8 5.8 0 0 1 .544-1.662 5.4 5.4 0 0 1 1.015-1.398 5.6 5.6 0 0 1 1.402-1.023 5.8 5.8 0 0 1 1.653-.544A12.6 12.6 0 0 1 7.543.887l.902-.012h102.769l.913.013a12.4 12.4 0 0 1 1.858.162 6 6 0 0 1 1.671.548 5.6 5.6 0 0 1 2.415 2.42 5.8 5.8 0 0 1 .535 1.649 13 13 0 0 1 .174 1.887c.003.283.003.588.003.89.008.375.008.732.008 1.092v20.929c0 .363 0 .718-.008 1.075 0 .325 0 .623-.004.93a13 13 0 0 1-.17 1.853 5.7 5.7 0 0 1-.54 1.67 5.5 5.5 0 0 1-1.016 1.386 5.4 5.4 0 0 1-1.4 1.022 5.9 5.9 0 0 1-1.668.55 12.5 12.5 0 0 1-1.869.163c-.293.007-.6.011-.897.011l-1.084.002Z"/><g data-name="&lt;Group&gt;"><g data-name="&lt;Group&gt;"><path d="M24.769 20.3a4.95 4.95 0 0 1 2.356-4.151 5.07 5.07 0 0 0-3.99-2.158c-1.68-.176-3.308 1.005-4.164 1.005-.872 0-2.19-.988-3.608-.958a5.32 5.32 0 0 0-4.473 2.728c-1.934 3.348-.491 8.269 1.361 10.976.927 1.325 2.01 2.805 3.428 2.753 1.387-.058 1.905-.885 3.58-.885 1.658 0 2.144.885 3.59.852 1.489-.025 2.426-1.332 3.32-2.67a11 11 0 0 0 1.52-3.092 4.78 4.78 0 0 1-2.92-4.4m-2.732-8.09a4.87 4.87 0 0 0 1.115-3.49 4.96 4.96 0 0 0-3.208 1.66 4.64 4.64 0 0 0-1.144 3.36 4.1 4.1 0 0 0 3.237-1.53" data-name="&lt;Path&gt;" style="fill:#fff"/></g><path d="M42.302 27.14H37.57l-1.137 3.356h-2.005l4.484-12.418h2.083l4.483 12.418h-2.039Zm-4.243-1.55h3.752l-1.85-5.446h-.051Zm17.101.38c0 2.813-1.506 4.62-3.779 4.62a3.07 3.07 0 0 1-2.848-1.583h-.043v4.484h-1.86V21.442h1.8v1.506h.033a3.21 3.21 0 0 1 2.883-1.6c2.298 0 3.813 1.816 3.813 4.622m-1.91 0c0-1.833-.948-3.038-2.393-3.038-1.42 0-2.375 1.23-2.375 3.038 0 1.824.955 3.046 2.375 3.046 1.445 0 2.393-1.197 2.393-3.046m11.876 0c0 2.813-1.506 4.62-3.779 4.62a3.07 3.07 0 0 1-2.848-1.583h-.043v4.484h-1.859V21.442h1.799v1.506h.034a3.21 3.21 0 0 1 2.883-1.6c2.298 0 3.813 1.816 3.813 4.622m-1.91 0c0-1.833-.948-3.038-2.393-3.038-1.42 0-2.375 1.23-2.375 3.038 0 1.824.955 3.046 2.375 3.046 1.445 0 2.392-1.197 2.392-3.046m8.496 1.066c.138 1.232 1.334 2.04 2.97 2.04 1.566 0 2.693-.808 2.693-1.919 0-.964-.68-1.54-2.29-1.936l-1.609-.388c-2.28-.55-3.339-1.617-3.339-3.348 0-2.142 1.867-3.614 4.519-3.614 2.624 0 4.423 1.472 4.483 3.614h-1.876c-.112-1.239-1.136-1.987-2.634-1.987s-2.521.757-2.521 1.858c0 .878.654 1.395 2.255 1.79l1.368.336c2.548.603 3.606 1.626 3.606 3.443 0 2.323-1.85 3.778-4.793 3.778-2.754 0-4.614-1.42-4.734-3.667ZM83.346 19.3v2.142h1.722v1.472h-1.722v4.991c0 .776.345 1.137 1.102 1.137a6 6 0 0 0 .611-.043v1.463a5 5 0 0 1-1.032.086c-1.833 0-2.548-.689-2.548-2.445v-5.189h-1.316v-1.472h1.316V19.3Zm2.719 6.67c0-2.849 1.678-4.639 4.294-4.639 2.625 0 4.295 1.79 4.295 4.639 0 2.856-1.661 4.638-4.295 4.638s-4.294-1.782-4.294-4.638m6.695 0c0-1.954-.895-3.108-2.401-3.108s-2.4 1.162-2.4 3.108c0 1.962.894 3.106 2.4 3.106s2.401-1.144 2.401-3.106m3.426-4.528h1.773v1.541h.043a2.16 2.16 0 0 1 2.177-1.635 3 3 0 0 1 .637.069v1.738a2.6 2.6 0 0 0-.835-.112 1.873 1.873 0 0 0-1.937 2.083v5.37h-1.858Zm13.198 6.395c-.25 1.643-1.85 2.771-3.898 2.771-2.634 0-4.269-1.764-4.269-4.595 0-2.84 1.644-4.682 4.19-4.682 2.506 0 4.08 1.72 4.08 4.466v.637h-6.394v.112a2.358 2.358 0 0 0 2.436 2.564 2.05 2.05 0 0 0 2.09-1.273Zm-6.282-2.702h4.526a2.177 2.177 0 0 0-2.22-2.298 2.29 2.29 0 0 0-2.306 2.298" style="fill:#fff"/></g><path d="M35.67 14.698V8.73h2.4c1.12 0 1.794.57 1.794 1.488a1.31 1.31 0 0 1-1.046 1.283v.07a1.41 1.41 0 0 1 1.344 1.434c0 1.05-.765 1.692-2.039 1.692Zm.928-3.44h1.1c.819 0 1.244-.302 1.244-.869 0-.55-.401-.872-1.087-.872h-1.257Zm1.34 2.654c.835 0 1.277-.34 1.277-.972 0-.624-.46-.95-1.331-.95h-1.286v1.922Zm3.176-.488c0-.81.604-1.278 1.675-1.344l1.22-.07v-.389c0-.475-.315-.744-.922-.744-.496 0-.84.182-.939.5h-.86c.09-.773.818-1.27 1.84-1.27 1.129 0 1.766.563 1.766 1.514v3.077h-.856v-.633h-.07a1.52 1.52 0 0 1-1.353.707 1.36 1.36 0 0 1-1.5-1.348m2.895-.384v-.377l-1.1.07c-.62.042-.901.253-.901.65 0 .405.351.64.835.64a1.06 1.06 0 0 0 1.166-.983m2.159-4.177a.576.576 0 1 1 .575.542.547.547 0 0 1-.575-.542m.132 1.332h.886v4.503H46.3Zm3.935 2.907-.984 1.596h-.976l1.494-2.241-1.506-2.262h1.038l.968 1.588h.07l.959-1.588h.988l-1.484 2.224 1.5 2.279h-1.02l-.98-1.596Zm2.852.322c0-.81.603-1.278 1.675-1.344l1.22-.07v-.389c0-.475-.315-.744-.922-.744-.497 0-.84.182-.939.5h-.86c.09-.773.818-1.27 1.84-1.27 1.128 0 1.765.563 1.765 1.514v3.077h-.855v-.633h-.07a1.52 1.52 0 0 1-1.353.707 1.36 1.36 0 0 1-1.501-1.348m2.894-.384v-.377l-1.1.07c-.62.042-.9.253-.9.65 0 .405.351.64.834.64a1.06 1.06 0 0 0 1.166-.983m2.277-2.845h.855v.69h.067a1.22 1.22 0 0 1 1.216-.765 2 2 0 0 1 .396.037v.877a2.4 2.4 0 0 0-.496-.053 1.055 1.055 0 0 0-1.15 1.058v2.659h-.888Zm5.959 0h.856v.715h.066a1.35 1.35 0 0 1 1.344-.802 1.465 1.465 0 0 1 1.559 1.675v2.915h-.89v-2.692c0-.724-.314-1.084-.97-1.084a1.033 1.033 0 0 0-1.076 1.141v2.635h-.89Zm4.942 3.229c0-.81.604-1.278 1.675-1.344l1.22-.07v-.389c0-.475-.314-.744-.922-.744-.496 0-.84.182-.938.5h-.86c.09-.773.818-1.27 1.84-1.27 1.128 0 1.765.563 1.765 1.514v3.077h-.856v-.633h-.07a1.52 1.52 0 0 1-1.352.707 1.36 1.36 0 0 1-1.501-1.348m2.895-.384v-.377l-1.1.07c-.62.042-.9.253-.9.65 0 .405.35.64.834.64a1.06 1.06 0 0 0 1.166-.983" style="fill:#fff" data-name="&lt;Group&gt;"/></symbol>
	<symbol id="google-play-badge" fill="none" xmlns="http://www.w3.org/2000/svg"><path d="M115.533 36H4.467A4.467 4.467 0 0 1 0 31.466V4.533C0 2 2 0 4.467 0h111.066A4.467 4.467 0 0 1 120 4.533v27C120 34 118 36 115.533 36z" fill="#000" style="stroke-width:.666661"/><path d="m18.4 17.467-9.466 10.2a2.533 2.533 0 0 0 3.8 1.533L23.4 23z" fill="#ea4335" style="stroke-width:.666661"/><path d="m28 15.733-4.666-2.666-5.134 4.666L23.4 23l4.6-2.667A2.6 2.6 0 0 0 29.334 18 2.667 2.667 0 0 0 28 15.733z" fill="#fbbc04" style="stroke-width:.666661"/><path d="M8.934 8.333A2.467 2.467 0 0 0 8.867 9v18l.067.666 9.8-9.933-9.8-9.333z" fill="#4285f4" style="stroke-width:.666661"/><path d="m18.467 18 4.933-4.933L12.734 6.8a2.6 2.6 0 0 0-3.8 1.533Z" fill="#34a853" style="stroke-width:.666661"/><path d="M95.066 26.666h1.667V15.533h-1.667zM110 19.533l-1.934 4.867-2-4.867h-1.8l3 6.733-1.733 3.8h1.733l4.6-10.533zm-9.4 5.867c-.534 0-1.334-.267-1.334-.934 0-.866.934-1.2 1.8-1.2.667 0 1.067.134 1.467.4a2 2 0 0 1-2 1.734zm.2-6.067c-1.2 0-2.467.534-2.934 1.667l1.467.666c.267-.666.867-.866 1.467-.866.866 0 1.733.533 1.8 1.466v.067a3.667 3.667 0 0 0-1.734-.4c-1.6 0-3.2.867-3.2 2.533 0 1.467 1.267 2.4 2.667 2.4a2.333 2.333 0 0 0 2.2-1.066v.866h1.667V22.4c0-2-1.467-3.067-3.4-3.067zm-10.267 1.6H88.2v-3.866h2.333a1.933 1.933 0 0 1 2 2 1.933 1.933 0 0 1-2 1.866zm0-5.333h-4v11.066H88.2v-4.2h2.333c1.8 0 3.6-1.333 3.6-3.466s-1.8-3.467-3.6-3.467zm-21.666 9.733c-1.2 0-2.134-.933-2.134-2.267 0-1.333.934-2.333 2.067-2.333s2 1 2 2.333c0 1.334-.867 2.267-2 2.267zm1.866-5.2h-.066a2.667 2.667 0 0 0-2-.866 3.733 3.733 0 0 0-3.6 3.8c0 2.133 1.733 3.733 3.6 3.733a2.667 2.667 0 0 0 2-.8v.533c0 1.4-.667 2.2-2 2.2A2.067 2.067 0 0 1 66.8 27.4l-1.467.6a3.6 3.6 0 0 0 3.334 2.2c2 0 3.666-1.134 3.666-3.934V19.6h-1.666v.6zM73.4 26.6h1.733V15.533h-1.666v11.133zm4.2-3.667a2.067 2.067 0 0 1 2-2.2c.6 0 1.133.333 1.333.8zm5.133-1.267c-.333-.866-1.333-2.4-3.266-2.4-1.934 0-3.534 1.534-3.534 3.8 0 2.067 1.6 3.734 3.734 3.734 1.733 0 2.733-1 3.133-1.667l-1.267-.867a2.133 2.133 0 0 1-1.866 1.067 1.933 1.933 0 0 1-1.8-1.133l5-2.067ZM42.467 20.4V22h3.8a3.333 3.333 0 0 1-.867 2 3.933 3.933 0 0 1-2.933 1.2 4.2 4.2 0 0 1-4.2-4.267A4.2 4.2 0 0 1 45.333 18l1.134-1.133a5.6 5.6 0 0 0-4-1.667 6 6 0 0 0-6 5.866 6 6 0 0 0 6 5.867 5.333 5.333 0 0 0 4.066-1.6c1.067-1.067 1.334-2.533 1.334-3.733a5.2 5.2 0 0 0 0-1h-5.4zm9.8 4.933c-1.134 0-2.134-.933-2.134-2.267 0-1.333 1-2.333 2.134-2.333 1.2 0 2.133.933 2.133 2.333 0 1.334-.933 2.267-2.133 2.267zm0-6a3.733 3.733 0 0 0-3.8 3.733 3.733 3.733 0 0 0 3.8 3.734 3.733 3.733 0 0 0 3.8-3.734 3.733 3.733 0 0 0-3.8-3.8zm8.4 6c-1.2 0-2.134-.933-2.134-2.267 0-1.333.934-2.333 2.134-2.333 1.133 0 2.133.933 2.133 2.333 0 1.334-1 2.267-2.133 2.267zm0-6a3.733 3.733 0 0 0-3.8 3.733 3.733 3.733 0 0 0 3.8 3.734 3.733 3.733 0 0 0 3.8-3.734 3.733 3.733 0 0 0-3.8-3.8zM37.334 10.8h1a2 2 0 0 0 1.466-.467c.333-.4.533-.866.533-1.533a2 2 0 0 0-.533-1.467 2 2 0 0 0-1.466-.533h-1Zm-.667.667V6.133h1.667a2.667 2.667 0 0 1 2 .8A2.6 2.6 0 0 1 41 8.8a2.667 2.667 0 0 1-.667 2 2.667 2.667 0 0 1-2 .667z" fill="#fff" style="stroke-width:.666661"/><path d="M37.4 10.933h1c.667 0 1.134-.133 1.533-.466a2.067 2.067 0 0 0 .534-1.6 2.067 2.067 0 0 0-.534-1.534A2.067 2.067 0 0 0 38.4 6.8h-1.066V11h.066v-.067h.134v-4h.866c.6 0 1.067.2 1.334.534.4.333.533.8.533 1.4 0 .666-.133 1.133-.467 1.466-.333.334-.8.467-1.4.467h-1.066v.133zm-.666.667h.066V6.267h1.6c.8 0 1.4.266 1.867.733a2.533 2.533 0 0 1 .666 1.867 2.533 2.533 0 0 1-.666 1.866 2.533 2.533 0 0 1-1.867.734h-1.733v.2h1.667a2.667 2.667 0 0 0 2-.8 2.667 2.667 0 0 0 .733-2 2.667 2.667 0 0 0-.667-2 2.733 2.733 0 0 0-2.066-.734h-1.667v5.534h.067v-.134zm5.333 0V6.267h.666V11.6z" fill="#fff" style="stroke-width:.666661"/><path d="M42 11.533h.133v-5.2h.534v5.134H42v.2h.8V6.133H42v5.534h.133v-.134zm3.467.134a2 2 0 0 1-1.134-.4A1.733 1.733 0 0 1 43.6 10.2l.667-.2c0 .267.2.533.4.667a1.267 1.267 0 0 0 1.533.133c.2-.2.333-.4.333-.667 0-.266-.133-.533-.333-.666a3.333 3.333 0 0 0-1-.467 2.667 2.667 0 0 1-1.067-.6 1.2 1.2 0 0 1-.333-.867c0-.4.133-.666.467-1a1.667 1.667 0 0 1 1.133-.4c.467 0 .867.067 1.133.334.267.2.467.466.534.666l-.667.334A.933.933 0 0 0 46.133 7c-.2-.133-.4-.267-.666-.267-.334 0-.534.067-.667.267a.667.667 0 0 0-.333.533c0 .2.066.334.266.467l.734.4.666.267c.2 0 .4.133.534.266.2.134.333.334.4.534l.133.666c0 .267 0 .467-.133.667l-.4.533a2.067 2.067 0 0 1-1.2.334z" fill="#fff" style="stroke-width:.666661"/><path d="M45.467 11.667V11.6c-.4 0-.734-.133-1.067-.4a1.667 1.667 0 0 1-.667-1H43.6v.133l.667-.266V10h-.134c.067.333.267.6.467.8.267.2.533.333.867.333a1.333 1.333 0 0 0 .8-.266c.2-.2.333-.4.333-.667 0-.4-.067-.667-.333-.8a3.333 3.333 0 0 0-1-.467A3.18 3.18 0 0 1 44.2 8.4a1.133 1.133 0 0 1-.333-.867c0-.333.133-.666.4-.933.333-.267.666-.4 1.133-.4a1.6 1.6 0 0 1 1.6 1h.067v-.067L46.4 7.4h.133a1 1 0 0 0-.333-.467 1.133 1.133 0 0 0-.733-.266c-.334 0-.534.066-.734.266a.667.667 0 0 0-.333.6c0 .2.067.4.267.6l.8.334.666.266.534.334.333.4c.133.2.133.4.133.666L47 10.8l-.4.467a2 2 0 0 1-1.133.333v.2a2.2 2.2 0 0 0 1.2-.467c.133-.133.333-.333.4-.533.133-.2.2-.467.2-.733 0-.267 0-.534-.134-.667a1.333 1.333 0 0 0-.466-.6 3.733 3.733 0 0 0-1.2-.533 2.4 2.4 0 0 1-.734-.4.533.533 0 0 1-.2-.4c0-.2 0-.334.2-.467s.4-.2.667-.2c.2 0 .4 0 .6.2.133.133.267.267.267.4v.133l.866-.333v-.133a1.667 1.667 0 0 0-.666-.734 1.8 1.8 0 0 0-1.134-.4c-.466 0-.933.134-1.2.467a1.333 1.333 0 0 0-.533 1.067c0 .4.133.666.4.933s.667.467 1.133.667c.467.066.8.266.934.4.2.133.333.333.333.666 0 .2-.133.4-.333.534-.134.133-.4.2-.667.2s-.533-.067-.733-.267a1.333 1.333 0 0 1-.4-.667V9.8l-.8.267v.133c.066.467.333.867.733 1.133a2 2 0 0 0 1.2.4V11.6zm3.466-2.934H50c.267 0 .533-.066.667-.266.133-.2.266-.4.266-.667 0-.2-.066-.467-.266-.667A1.018 1.018 0 0 0 50 6.867h-1.133v1.866zm0 2.8h-.666V6.2H50c.4 0 .8.2 1.133.467.334.333.534.666.534 1.133a1.467 1.467 0 0 1-.534 1.133A1.667 1.667 0 0 1 50 9.4h-1.133v2.133z" fill="#fff" style="stroke-width:.666661"/><path d="M48.867 8.733V8.8h1.2c.266 0 .533-.067.733-.267.2-.2.267-.466.267-.666 0-.334-.067-.534-.267-.734a1 1 0 0 0-.733-.333H48.8v2h.2V6.933h1c.267 0 .467.134.667.267.066.2.2.4.2.667 0 .133-.067.333-.267.533a.889.889 0 0 1-.667.267H48.8v.066zm0 2.8v-.066h-.6V6.333H50c.467 0 .8.134 1.133.4.334.267.467.667.467 1.067a1.333 1.333 0 0 1-.467 1.067c-.333.266-.666.466-1.133.466h-1.2v2.2h.2v-2h1c.467 0 .933-.2 1.267-.533.333-.333.533-.667.533-1.2 0-.467-.2-.867-.533-1.2A1.8 1.8 0 0 0 50 6.133h-1.867v5.534H49v-.134h-.067zm4.666-1.133a2 2 0 0 0 1.467.667 2 2 0 0 0 1.4-.667 2 2 0 0 0 .667-1.533c0-.6-.267-1.134-.667-1.534a2 2 0 0 0-1.4-.6 2 2 0 0 0-1.467.667c-.4.333-.6.867-.6 1.467 0 .666.2 1.133.6 1.533zm3.334.467a2.667 2.667 0 0 1-1.867.8 2.667 2.667 0 0 1-2.8-2.8 2.667 2.667 0 0 1 2.733-2.734 2.733 2.733 0 0 1 2.8 2.734 2.733 2.733 0 0 1-.8 2z" fill="#fff" style="stroke-width:.666661"/><path d="m53.533 10.4-.066.067c.4.466.933.666 1.533.666a2 2 0 0 0 1.467-.666c.4-.4.666-.934.666-1.6 0-.667-.2-1.134-.666-1.6a2 2 0 0 0-1.467-.6 2 2 0 0 0-1.533.666 2.2 2.2 0 0 0-.667 1.534c0 .666.267 1.2.667 1.6l.133-.134a2 2 0 0 1-.6-1.466 2 2 0 0 1 .6-1.467 1.867 1.867 0 0 1 1.333-.533c.6 0 1.067.2 1.4.533a2 2 0 0 1 .6 1.467 2 2 0 0 1-.6 1.466 1.867 1.867 0 0 1-1.333.6 1.867 1.867 0 0 1-1.4-.6zm3.334.467V10.8a2.533 2.533 0 0 1-1.867.8 2.667 2.667 0 0 1-2.667-2.667A2.667 2.667 0 0 1 55 6.2c.667 0 1.333.267 1.867.8a2.667 2.667 0 0 1 .733 1.867 2.667 2.667 0 0 1-.733 2h.066v.066a2.8 2.8 0 0 0 .867-2A2.8 2.8 0 0 0 55 6a2.8 2.8 0 0 0-2.867 2.867A2.8 2.8 0 0 0 55 11.733a2.667 2.667 0 0 0 2-.8l-.067-.066zm1.8.666V6.2h.866l2.6 4.2V6.2h.667v5.333h-.667l-2.8-4.333v4.333z" fill="#fff" style="stroke-width:.666661"/><path d="M58.667 11.533h.133v-5.2h.667l2.6 4.134h.133V6.333h.533v5.134h-.666L59.4 7.133h-.067v4.334h-.666v.2h.8V7.2h-.134v.067l2.667 4.4h.867V6.133H62V10.4h.133v-.133.133-.067l-2.6-4.2h-.866v5.534h.066v-.134Zm6-5.733H64l.467-.933h.666ZM64 11.533V6.2h.667v5.333z" fill="#fff" style="stroke-width:.666661"/><path d="M64.667 5.8v-.067H64.2l.267-.8H65l-.467.8.134.067.666-1.067H64.4l-.467 1.134h.734zM64 11.533h.133v-5.2h.467v5.134H64v.2h.8V6.133h-.867v5.534H64zm3.267 0L65.333 6.2h.8l1.467 4.333L69.133 6.2h.734l-1.934 5.333z" fill="#fff" style="stroke-width:.666661"/><path d="M67.2 11.533h.133l-1.866-5.2h.6l1.466 4.334h.134L69.2 6.333h.533l-1.866 5.134H67.2v.2h.8l2-5.534h-.933l-1.534 4.4h.067v-.066.066l-1.4-4.4h-1l2 5.534Zm6.6-4.666h-2.467v1.666h2.2V9.2h-2.2v1.667H73.8v.666h-3.133V6.2H73.8z" fill="#fff" style="stroke-width:.666661"/><path d="M73.8 6.867V6.8h-2.533v1.867h2.2v.466h-2.2V11h2.4v.467h-2.934V6.333h2.934v.534h.2v-.734h-3.334v5.534h3.334V10.8h-2.4V9.333H73.6v-.8h-2.133V7h2.4-.067zm1.067 4.666V6.2h.666v4.667h2.334v.666z" fill="#fff" style="stroke-width:.666661"/><path d="M74.867 11.533h.066v-5.2h.534V11h2.266v.467h-2.866v.2h3.066V10.8H75.6V6.133h-.867v5.534h.134zm5.6 0V6.2h.866l2.6 4.2V6.2h.667v5.333h-.667L81.2 7.2v4.333h-.667z" fill="#fff" style="stroke-width:.666661"/><path d="M80.466 11.533h.134v-5.2h.666l2.6 4.134h.2V6.333h.467v5.134h-.6l-2.667-4.334h-.2v4.334h-.6v.2h.8V7.2h-.133v.067l2.667 4.4h.866V6.133H83.8V10.4h.133v-.133.133-.067l-2.533-4.2h-1v5.534h.067zM86.8 10.4a2 2 0 0 0 1.4.667 2 2 0 0 0 1.466-.667 2 2 0 0 0 .667-1.533c0-.6-.267-1.134-.667-1.534a2 2 0 0 0-1.466-.6 2 2 0 0 0-1.4.667 1.91 1.91 0 0 0-.667 1.467A2 2 0 0 0 86.8 10.4zm3.333.467a2.667 2.667 0 0 1-1.933.8 2.733 2.733 0 0 1-2.667-2.8A2.733 2.733 0 0 1 88.2 6.133a2.667 2.667 0 0 1 2 .8 2.667 2.667 0 0 1 .8 2 2.733 2.733 0 0 1-.8 1.934z" fill="#fff" style="stroke-width:.666661"/><path d="m86.8 10.4-.067.067c.4.466.933.666 1.467.666a2 2 0 0 0 1.533-.666c.4-.4.667-.934.667-1.6 0-.667-.267-1.134-.667-1.6a2 2 0 0 0-1.533-.6 2 2 0 0 0-1.467.666 2.2 2.2 0 0 0-.667 1.534c0 .666.267 1.2.667 1.6l.133-.134a2 2 0 0 1-.6-1.466 2 2 0 0 1 .6-1.467 1.867 1.867 0 0 1 1.334-.533 2 2 0 0 1 1.4.533 2 2 0 0 1 .6 1.467 2 2 0 0 1-.6 1.466 1.867 1.867 0 0 1-1.334.6 1.867 1.867 0 0 1-1.4-.6Zm3.333.467V10.8a2.533 2.533 0 0 1-1.933.8 2.667 2.667 0 0 1-2.667-2.667A2.667 2.667 0 0 1 88.2 6.2c.8 0 1.4.267 1.933.8a2.667 2.667 0 0 1 .733 1.867 2.667 2.667 0 0 1-.733 2l.133.066a2.8 2.8 0 0 0 .8-2A2.8 2.8 0 0 0 88.2 6a2.8 2.8 0 0 0-2.8 2.867 2.8 2.8 0 0 0 2.866 2.866 2.667 2.667 0 0 0 2-.8l-.066-.066z" fill="#fff" style="stroke-width:.666661"/></symbol>
</svg>
